<?xml version="1.0" encoding="utf-8"?>
<!-- Generator: Adobe Illustrator 16.0.0, SVG Export Plug-In . SVG Version: 6.00 Build 0)  -->
<!DOCTYPE svg PUBLIC "-//W3C//DTD SVG 1.1//EN" "http://www.w3.org/Graphics/SVG/1.1/DTD/svg11.dtd">
<svg version="1.1" id="Layer_1" xmlns="http://www.w3.org/2000/svg" xmlns:xlink="http://www.w3.org/1999/xlink" x="0px" y="0px"
	 width="160px" height="245px" viewBox="0 0 160 245" enable-background="new 0 0 160 245" xml:space="preserve">
<g>
	<path fill="#F3EA23" d="M58.332,186.454c-1.014,0-2.5-0.024-3.656-1.015c-1.221-1.042-1.447-2.648-1.584-3.609
		c-0.104-0.732-0.205-1.467-0.307-2.202c-0.965-7.014-1.963-12.819-5.457-18.827c-4.816-8.283-9.846-11.82-16.906-17.627
		c-1.137-0.933-2.264-1.912-3.348-2.907c-6.387-5.864-11.834-12.709-16.195-20.345c-4.378-7.664-7.485-15.823-9.239-24.249
		c-1.748-8.416-2.107-17.275-1.037-25.62c1.051-8.199,3.428-16.251,7.068-23.935c3.589-7.58,8.28-14.542,13.946-20.694
		c5.732-6.228,12.275-11.413,19.443-15.413C64.102-2.847,93-3.353,116.473,8.689c23.477,12.042,39.962,35.824,43.021,62.067
		c0.355,3.048,0.523,6.171,0.506,9.287c-0.133,23.318-10.638,46.135-28.099,61.037c-7.18,6.126-13.105,10.072-18.58,18.947
		c-4.234,6.862-5.461,13.728-6.439,22.353c-0.098,0.847-0.258,2.265-1.365,3.193c-1.006,0.846-2.299,0.847-3.072,0.848
		l-44.027,0.033H58.332z"/>
	<path fill="#0F2C34" d="M62.98,53.57c-1.008,0-1.799,0.791-1.799,1.801v0.279c-0.166,1.424-1.35,2.493-2.768,2.493H46.936
		c-1.5,0-2.77-1.27-2.77-2.772c0-0.507,0.096-0.949,0.285-1.347l17.791-25.625c0.979-1.419,1.074-3.199,0.256-4.762
		c-0.838-1.602-2.428-2.598-4.148-2.598H44.082c-0.977,0-1.801,0.826-1.801,1.803c0,1.011,0.791,1.803,1.801,1.803H58.35
		c0.49,0,0.834,0.341,0.99,0.66c0.143,0.29,0.207,0.714-0.059,1.064L41.375,52.197c-0.598,0.972-0.875,2.084-0.807,3.174
		c0,3.517,2.857,6.377,6.367,6.377h11.479c3.268,0,6.004-2.489,6.361-5.79l0.004-0.588C64.779,54.361,63.99,53.57,62.98,53.57"/>
	<path fill="#0F2C34" d="M74.713,58.144l-0.186,0.003c-0.971-0.093-1.711-0.873-1.758-1.821V22.843c0-1.011-0.789-1.803-1.799-1.803
		c-0.977,0-1.799,0.825-1.799,1.803v33.501c0.072,2.834,2.158,5.105,4.959,5.401l0.582,0.004c1.01,0,1.799-0.792,1.799-1.801
		C76.512,58.97,75.688,58.144,74.713,58.144"/>
	<path fill="#0F2C34" d="M105.664,21.129c-0.441-0.138-0.908-0.087-1.313,0.143c-0.432,0.244-0.742,0.667-0.85,1.148
		c-1.057,4.424-7.457,31.974-8.127,34.93c-0.002,0.008-0.217,0.794-1.127,0.794c-0.912,0-1.127-0.786-1.137-0.834
		c-0.664-2.929-6.303-26.908-7.357-31.322c-0.645-2.867-3.26-4.948-6.221-4.948c-1.076,0-1.799,0.933-1.799,1.803
		c0,0.871,0.723,1.803,1.799,1.803c1.297,0,2.416,0.896,2.725,2.179c0.508,2.13,2.025,8.607,3.557,15.147
		c1.688,7.21,3.432,14.667,3.803,16.19c0.453,1.728,2.096,3.587,4.631,3.587c2.533,0,4.174-1.859,4.631-3.6
		c0.357-1.46,2.135-9.134,4.018-17.26c1.758-7.577,3.572-15.412,4.104-17.634c0.104-0.469,0.016-0.949-0.25-1.356
		C106.494,21.51,106.111,21.238,105.664,21.129"/>
	<path fill="#0F2C34" d="M117.014,58.144l-0.184,0.003c-0.975-0.093-1.711-0.873-1.758-1.821V22.843
		c0-1.011-0.789-1.803-1.801-1.803c-0.975,0-1.799,0.825-1.799,1.803v33.501c0.072,2.834,2.158,5.105,4.959,5.401l0.582,0.004
		c1.01,0,1.799-0.792,1.799-1.801C118.813,58.97,117.99,58.144,117.014,58.144"/>
	<path fill="#0F2C34" d="M47.475,14.013c0.334,0,0.563,0.064,0.654,0.106c0.219,0.363,0.748,1.249,1.27,2.129
		c0.604,1.015,1.201,2.022,1.348,2.254c0.314,0.471,1.068,0.751,2.01,0.751c0.943,0,1.697-0.28,2.023-0.772
		c0.129-0.206,0.775-1.304,1.436-2.424c0.641-1.086,1.291-2.192,1.494-2.527l0.195-0.405l-0.184-0.348
		c-0.15-0.284-0.453-0.462-0.855-0.501c-0.387-0.046-0.924,0.047-1.15,0.451c-0.365,0.601-2.32,3.911-2.824,4.77
		c-0.066,0.009-0.201,0.009-0.271,0c-0.479-0.815-2.201-3.697-2.537-4.249c-0.414-0.726-1.617-0.983-2.607-0.983
		c-0.729,0-1.107,0.44-1.107,0.875C46.367,13.573,46.746,14.013,47.475,14.013"/>
	<path fill="#0F2C34" d="M51.486,77.49c-1.246-0.832-2.838-1.551-4.379-2.246c-0.609-0.275-1.205-0.545-1.746-0.807
		c-0.393-0.21-0.814-0.735-0.814-1.393c0-2.18,1.77-3.954,3.945-3.954c1.055,0,2.064,0.425,2.779,1.169
		c0.15,0.153,0.354,0.237,0.57,0.237s0.428-0.086,0.578-0.235c0.158-0.161,0.248-0.366,0.248-0.577c0-0.212-0.09-0.416-0.244-0.571
		c-1.029-1.065-2.428-1.651-3.932-1.651c-3.072,0-5.572,2.505-5.572,5.583c0,1.365,0.861,2.408,1.717,2.835l1.318,0.645
		c1.645,0.802,4.395,2.143,4.662,2.349c1.141,0.722,1.822,1.963,1.822,3.322c0,2.18-1.771,3.954-3.947,3.954H47.82
		c-2.176,0-3.945-1.773-3.945-3.954c0-0.434-0.381-0.814-0.813-0.814c-0.434,0-0.813,0.381-0.813,0.814
		c0,3.079,2.498,5.583,5.57,5.583h0.672c3.074,0,5.572-2.504,5.572-5.583C54.064,80.293,53.1,78.535,51.486,77.49"/>
	<path fill="#0F2C34" d="M68.813,67.503c-0.199-0.061-0.408-0.04-0.592,0.063c-0.193,0.11-0.334,0.302-0.381,0.52
		c-0.525,2.193-3.752,16.081-4.094,17.585c0,0.005-0.121,0.478-0.66,0.478c-0.537,0-0.658-0.472-0.662-0.492
		c-0.33-1.457-3.17-13.536-3.705-15.775c-0.314-1.403-1.594-2.419-3.041-2.419c-0.488,0-0.814,0.422-0.814,0.816
		c0,0.393,0.326,0.813,0.814,0.813c0.695,0,1.295,0.481,1.461,1.168c0.256,1.07,1.014,4.314,1.783,7.596
		c0.863,3.685,1.736,7.419,1.924,8.186c0.156,0.601,0.83,1.737,2.24,1.737c1.412,0,2.086-1.136,2.244-1.742
		c0.18-0.736,1.078-4.613,2.029-8.716c0.893-3.85,1.793-7.741,2.061-8.858c0.047-0.211,0.006-0.427-0.113-0.61
		C69.191,67.675,69.016,67.551,68.813,67.503"/>
	<path fill="#0F2C34" d="M79.023,67.461c-0.988,0-1.973,0.268-2.857,0.779l-3.139,2.003c-0.541,0.271-1.189,0.323-1.711,0.177
		c-0.217-0.073-0.457-0.051-0.656,0.062c-0.189,0.107-0.318,0.279-0.357,0.46c-0.145,0.432,0.092,0.902,0.531,1.049
		c0.783,0.234,1.982,0.191,3-0.35l3.191-1.981c0.619-0.373,1.311-0.569,1.998-0.569c2.178,0,3.947,1.773,3.947,3.953v9.151
		c0,2.18-1.77,3.954-3.947,3.954c-2.174,0-3.945-1.773-3.945-3.954v-8.383c0-0.434-0.381-0.814-0.814-0.814
		c-0.432,0-0.813,0.38-0.813,0.814v8.383c0,3.079,2.502,5.583,5.572,5.583c3.074,0,5.574-2.504,5.574-5.583v-9.151
		C84.598,69.966,82.098,67.461,79.023,67.461"/>
	<path fill="#0F2C34" d="M94.098,67.461h-1.564c-0.393,0-0.783-0.156-1.086-0.433c-0.328-0.326-0.82-0.327-1.135-0.013
		c-0.158,0.137-0.252,0.332-0.262,0.546c-0.008,0.227,0.084,0.453,0.248,0.62c0.586,0.587,1.381,0.91,2.234,0.91l1.471-0.003
		c0.42,0.052,0.752,0.426,0.752,0.853v12.254c0,2.197-1.771,3.986-3.947,3.986c-1.039,0-2.025-0.416-2.795-1.184
		c-0.332-0.286-0.842-0.278-1.135,0.014c-0.164,0.167-0.252,0.391-0.244,0.619c0.008,0.211,0.098,0.401,0.25,0.538
		c1.01,1.039,2.404,1.609,3.924,1.609c3.074,0,5.574-2.504,5.574-5.583V69.908C96.383,68.643,95.389,67.567,94.098,67.461"/>
	<path fill="#0F2C34" d="M110.803,67.461c-0.434,0-0.814,0.381-0.814,0.816v13.918c0,2.18-1.768,3.954-3.945,3.954
		c-2.176,0-3.945-1.773-3.945-3.954v-11.62c-0.035-1.605-1.295-2.972-2.891-3.114h-0.256c-0.432,0-0.813,0.381-0.813,0.816
		c0,0.456,0.355,0.814,0.813,0.814l0.135-0.002c0.775,0.081,1.385,0.736,1.385,1.492v11.614c0,3.079,2.5,5.583,5.572,5.583
		s5.574-2.504,5.574-5.583V68.277C111.617,67.842,111.234,67.461,110.803,67.461"/>
	<path fill="#0F2C34" d="M34.916,129.658l-0.186,0.004c-0.973-0.092-1.711-0.873-1.758-1.822V94.358
		c0-1.012-0.789-1.804-1.797-1.804c-0.977,0-1.801,0.826-1.801,1.804v33.5c0.072,2.835,2.158,5.107,4.957,5.402l0.584,0.004
		c1.01,0,1.801-0.791,1.801-1.803C36.717,130.484,35.893,129.658,34.916,129.658"/>
	<path fill="#0F2C34" d="M49.82,92.491h-1.521c-3.545,0-6.43,2.89-6.43,6.441v21.855c0,1.011,0.789,1.802,1.801,1.802
		c0.973,0,1.799-0.825,1.799-1.802V98.932c0-1.599,1.268-2.9,2.83-2.9h1.521c6.178,0,11.201,4.75,11.201,10.588v12.896
		c0,3.948-2.324,7.545-6.07,9.392c-0.883,0.442-1.916,0.687-2.91,0.687c-1.188,0-2.404-0.347-3.412-0.964
		c-1.271-0.826-5.779-3.69-5.822-3.716c-1.879-1.011-4.15-1.243-6.088-0.621c-0.912,0.305-1.443,1.242-1.238,2.177l0.02,0.072
		c0.32,0.954,1.354,1.475,2.297,1.159c0.988-0.311,2.314-0.158,3.205,0.367c0.182,0.114,4.461,2.809,5.709,3.56
		c1.643,1.027,3.486,1.571,5.33,1.571c1.479,0,3.121-0.399,4.5-1.09c4.908-2.393,8.08-7.336,8.08-12.594v-12.896
		C64.621,98.83,57.98,92.491,49.82,92.491"/>
	<path fill="#0F2C34" d="M84.51,129.658l-11.691,0.001c-0.67,0.024-1.332-0.245-1.855-0.755c-0.564-0.546-0.887-1.282-0.887-2.019
		v-9.275c0-1.605,1.324-2.962,2.895-2.962h6.213c1.73,0,3.287-0.644,4.463-1.825c0.738-0.633,0.803-1.773,0.107-2.584
		c-0.732-0.732-1.877-0.732-2.605,0c-0.512,0.512-1.229,0.805-1.965,0.805h-6.213c-0.994,0-1.986,0.252-2.895,0.723V98.933
		c0-1.504,1.266-2.772,2.766-2.772H84.51c0.977,0,1.799-0.826,1.799-1.802c0-1.012-0.789-1.804-1.799-1.804l-11.637,0.001
		c-1.643-0.074-3.273,0.614-4.529,1.871c-1.256,1.258-1.936,2.912-1.869,4.506l0.002,27.924c-0.068,1.624,0.611,3.279,1.867,4.536
		c1.199,1.199,2.756,1.876,4.279,1.876c0.074,0,0.146-0.002,0.219-0.005H84.51c0.977,0,1.799-0.826,1.799-1.803
		S85.486,129.658,84.51,129.658"/>
	<path fill="#0F2C34" d="M100.051,92.555h-3.107c-0.736,0-1.467-0.294-2.027-0.805c-0.725-0.725-1.818-0.726-2.5-0.037
		c-0.361,0.308-0.566,0.741-0.584,1.22c-0.021,0.502,0.178,0.999,0.541,1.364c1.201,1.202,2.822,1.863,4.57,1.863h2.934
		c0.729,0.105,1.293,0.758,1.293,1.501v24.334c0,4.262-3.434,7.728-7.652,7.728c-2.016,0-3.93-0.805-5.428-2.305
		c-0.732-0.627-1.854-0.61-2.504,0.037c-0.363,0.367-0.561,0.864-0.541,1.366c0.018,0.467,0.215,0.89,0.555,1.195
		c2.037,2.094,4.848,3.247,7.918,3.247c6.203,0,11.248-5.056,11.248-11.269V97.598C104.766,94.99,102.721,92.776,100.051,92.555"/>
	<path fill="#0F2C34" d="M130.68,92.555c-0.975,0-1.797,0.825-1.797,1.802v27.638c0,4.227-3.434,7.664-7.65,7.664
		c-4.219,0-7.65-3.438-7.65-7.664V98.917c-0.072-3.279-2.646-6.073-5.922-6.362h-0.508c-0.975,0-1.799,0.825-1.799,1.802
		c0,1.012,0.789,1.803,1.799,1.803h0.277c1.434,0.166,2.553,1.378,2.553,2.772v23.063c0,6.213,5.045,11.269,11.25,11.269
		c6.201,0,11.248-5.056,11.248-11.269V94.357C132.48,93.379,131.658,92.555,130.68,92.555"/>
	<path fill="#0F2C34" d="M103.66,239.691H79.441h-0.891H55.938c-0.441,0-0.854,0.146-0.803,0.32
		c0.342,1.213,2.664,4.033,5.301,4.394c2.57,0.352,10.359,0.619,18.561,0.593c8.26,0.026,17.598-0.241,20.168-0.593
		c2.637-0.36,4.957-3.181,5.299-4.394C104.514,239.837,104.104,239.691,103.66,239.691"/>
	<rect x="54.273" y="190.353" fill="#0F2C34" width="51.051" height="46.026"/>
	<path fill="#FFFFFF" d="M82.691,216.926c0,1.014-0.82,1.481-2.18,1.481h-3.666v-3.001h3.564c1.582,0,2.281,0.564,2.281,1.481
		V216.926z M81.848,211.471c0,1.014-0.799,1.443-2.158,1.443h-2.844v-2.885h3.043c1.303,0,1.959,0.506,1.959,1.402V211.471z
		 M83.133,213.906c1.002-0.546,1.74-1.402,1.74-2.942v-0.039c0-0.935-0.32-1.693-0.961-2.318c-0.803-0.778-2.063-1.208-3.664-1.208
		h-6.404v13.639h6.668c3.16,0,5.244-1.248,5.244-3.74v-0.04C85.756,215.425,84.754,214.51,83.133,213.906"/>
	<path fill="#FFFFFF" d="M96.305,216.926c0,1.014-0.82,1.481-2.182,1.481h-3.662v-3.001h3.563c1.582,0,2.281,0.564,2.281,1.481
		V216.926z M95.463,211.471c0,1.014-0.799,1.443-2.16,1.443h-2.842v-2.885h3.041c1.303,0,1.961,0.506,1.961,1.402V211.471z
		 M96.744,213.906c1.002-0.546,1.742-1.402,1.742-2.942v-0.039c0-0.935-0.32-1.693-0.961-2.318
		c-0.801-0.778-2.063-1.208-3.662-1.208h-6.408v13.639h6.668c3.162,0,5.244-1.248,5.244-3.74v-0.04
		C99.367,215.425,98.367,214.51,96.744,213.906"/>
	<path fill="#FFFFFF" d="M66.629,221.199c3.238,0,5.514-1.514,5.514-4.208v-0.039c0-2.366-1.717-3.354-4.764-4.072
		c-2.596-0.602-3.078-0.892-3.078-1.784v-0.038c0-0.659,0.504-1.184,1.771-1.184c1.266,0,2.572,0.504,3.902,1.338l1.717-2.248
		c-1.523-1.106-3.389-1.727-5.578-1.727c-3.068,0-5.035,1.628-5.035,4.092v0.038c0,2.695,1.734,3.451,4.758,4.15
		c2.51,0.581,3.023,0.969,3.023,1.726v0.039c0,0.794-0.814,1.28-2.166,1.28c-1.789,0-3.404-0.705-4.756-1.713l-1.729,2.181
		C62.012,220.483,64.355,221.199,66.629,221.199"/>
</g>
<g>
	<defs>
		<path id="SVGID_1_" d="M41.322,10.968c-7.12,3.966-13.617,9.107-19.313,15.282c-5.627,6.099-10.287,13.003-13.853,20.519
			c-3.612,7.618-5.975,15.602-7.019,23.73C0.074,78.774,0.432,87.558,2.17,95.901c1.739,8.354,4.826,16.443,9.174,24.042
			c4.332,7.571,9.744,14.356,16.088,20.172c1.076,0.988,2.195,1.958,3.324,2.883c7.013,5.757,12.008,9.265,16.793,17.479
			c3.47,5.955,4.461,11.711,5.42,18.666c0.101,0.729,0.201,1.457,0.304,2.183c0.136,0.953,0.362,2.546,1.573,3.579
			c1.15,0.98,2.625,1.006,3.633,1.006h0.083l43.731-0.033c0.768-0.001,2.053-0.002,3.053-0.84c1.1-0.921,1.258-2.327,1.355-3.167
			c0.971-8.552,2.189-15.357,6.395-22.162c5.439-8.799,11.324-12.712,18.457-18.787c17.342-14.772,27.775-37.396,27.91-60.517
			c0.018-3.088-0.154-6.186-0.506-9.208c-3.037-26.019-19.41-49.6-42.729-61.539c-11.23-5.751-23.711-8.616-36.189-8.615
			C66.612,1.042,53.185,4.36,41.322,10.968"/>
	</defs>
	<clipPath id="SVGID_2_">
		<use xlink:href="#SVGID_1_"  overflow="visible"/>
	</clipPath>
	<path clip-path="url(#SVGID_2_)" fill="#0F2C34" d="M91.416,191.688l-1.791-0.003c0.014-11.391,2.285-22.835,6.572-33.099
		c1.703-4.079,4.242-9.097,8.809-11.719c0.852-0.489,1.76-0.889,2.639-1.275c1.771-0.779,3.445-1.515,4.521-2.883
		c0.244-0.31,1.082-2.143,1.588-12.681l1.789,0.086c-0.514,10.693-1.371,12.942-1.971,13.703c-1.352,1.719-3.311,2.58-5.207,3.413
		c-0.873,0.385-1.699,0.749-2.469,1.189c-4.098,2.354-6.453,7.038-8.047,10.856C93.652,169.324,91.428,180.532,91.416,191.688"/>
	<path clip-path="url(#SVGID_2_)" fill="#0F2C34" d="M68.891,190.793c-0.015-11.156-2.238-22.363-6.436-32.411
		c-1.594-3.818-3.951-8.503-8.048-10.856c-0.769-0.44-1.595-0.805-2.47-1.188c-1.894-0.833-3.853-1.695-5.205-3.414
		c-1.202-1.525-2.1-10.102-2.273-12.884l1.787-0.112c0.299,4.776,1.307,11.11,1.895,11.889c1.074,1.367,2.748,2.104,4.519,2.881
		c0.878,0.388,1.787,0.786,2.64,1.276c4.564,2.622,7.105,7.64,8.81,11.719c4.286,10.265,6.558,21.708,6.573,33.099L68.891,190.793z"
		/>
</g>
</svg>
